<svg width="711" height="711" viewBox="0 0 711 711" fill="none" xmlns="http://www.w3.org/2000/svg">
<g opacity="0.5" clip-path="url(#clip0_134_1031)">
<path fill-rule="evenodd" clip-rule="evenodd" d="M308.457 138.287C333.248 128.576 355.764 119.755 366.658 98.8974C378.775 75.6962 367.678 40.3703 367.678 40.3703C367.678 40.3703 409.002 73.6911 427.393 121.575C438.234 112.608 446.7 102.575 450.43 89.3295C457.526 64.1346 439.412 31.8398 439.412 31.8398C439.412 31.8398 557.547 88.3574 544.123 195.743C535.168 267.383 499.764 293.682 488.927 300.148C506.886 300.53 533.884 305.934 562.438 328.975C562.438 328.975 532.324 344.031 510.664 358.265C520.777 381.167 530.632 403.485 540.467 425.755L541.848 428.882L543.069 431.646C561.612 473.638 580.157 515.632 600.294 561.236C618.907 603.39 628.197 646.969 629.216 689.859C629.497 701.669 619.714 711.004 607.901 711.004H66.3887C59.4446 711.004 52.8853 707.735 48.8216 702.105C24.0928 667.839 6.22195 636.115 0 610.191C76.3773 619.629 155.256 602.922 207.077 552.018C155.676 566.732 101.091 550.797 101.091 550.797C101.091 550.797 136.423 539.72 148.541 516.519C159.434 495.662 153.808 472.143 147.614 446.248C140.028 414.534 131.59 379.255 151.602 340.938C187.955 271.334 234.384 295.584 234.384 295.584C234.384 295.584 187.955 271.334 224.308 201.731C244.321 163.413 278.095 150.182 308.457 138.287ZM419.168 371.415C433.82 371.415 445.697 359.537 445.697 344.885C445.697 330.233 433.82 318.355 419.168 318.355C404.516 318.355 392.638 330.233 392.638 344.885C392.638 359.537 404.516 371.415 419.168 371.415ZM689.768 440.397C704.92 409.93 692.505 372.948 662.038 357.796C636.044 344.868 561.877 358.07 540.658 362.225C537.694 362.806 536.131 365.949 537.456 368.662C546.947 388.091 581.174 455.2 607.167 468.127C637.635 483.279 674.616 470.864 689.768 440.397Z" fill="#5D4043"/>
</g>
<defs>
<clipPath id="clip0_134_1031">
<rect width="711" height="711" fill="white"/>
</clipPath>
</defs>
</svg>
