<svg width="24" height="24" viewBox="0 0 24 24" fill="none" xmlns="http://www.w3.org/2000/svg">
<path d="M16.7049 11.108C16.5429 8.121 14.9109 6.411 12.1709 6.394C10.5189 6.384 9.13785 7.084 8.29185 8.367L9.79985 9.4C10.4339 8.439 11.4349 8.24 12.1599 8.247C13.0629 8.253 13.7429 8.515 14.1839 9.027C14.5039 9.399 14.7189 9.914 14.8259 10.563C14.0259 10.427 13.1599 10.385 12.2359 10.438C9.62985 10.588 7.95585 12.108 8.06785 14.219C8.12485 15.29 8.65785 16.212 9.56985 16.814C10.3399 17.323 11.3339 17.571 12.3649 17.515C13.7279 17.44 14.7969 16.921 15.5429 15.97C16.1089 15.248 16.4669 14.312 16.6249 13.134C17.2749 13.526 17.7549 14.041 18.0219 14.661C18.4739 15.715 18.4999 17.447 17.0869 18.859C15.8489 20.095 14.3609 20.631 12.1119 20.647C9.61685 20.629 7.72985 19.828 6.50385 18.269C5.35385 16.809 4.76085 14.699 4.73885 12C4.76085 9.3 5.35485 7.191 6.50385 5.73C7.72985 4.171 9.61685 3.371 12.1119 3.353C14.6249 3.372 16.5439 4.175 17.8179 5.743C18.4429 6.511 18.9129 7.477 19.2239 8.603L20.9899 8.133C20.6129 6.746 20.0209 5.551 19.2159 4.56C17.5829 2.55 15.1829 1.521 12.1059 1.5C9.03485 1.521 6.67385 2.555 5.08685 4.571C3.67585 6.366 2.94685 8.877 2.92285 12.007C2.94685 15.137 3.67585 17.634 5.08685 19.429C6.67385 21.445 9.04685 22.479 12.1169 22.5C14.8479 22.481 16.7719 21.766 18.3569 20.183C20.4319 18.11 20.3689 15.513 19.6859 13.919C19.1609 12.694 18.1159 11.713 16.7059 11.109M12.2679 15.666C11.1259 15.73 9.93985 15.218 9.88085 14.12C9.83785 13.306 10.4609 12.398 12.3379 12.29C13.1862 12.233 14.0383 12.2916 14.8709 12.464C14.6549 15.166 13.3859 15.604 12.2679 15.666Z" fill="#816A6C"/>
</svg>
