<svg width="48" height="48" viewBox="0 0 48 48" fill="none" xmlns="http://www.w3.org/2000/svg">
    <g clip-path="url(#clip0_85_1834)">
        <rect width="48" height="48" fill="white" />
        <g style="mix-blend-mode:multiply" clip-path="url(#clip1_85_1834)">
            <path fill-rule="evenodd" clip-rule="evenodd"
                d="M20.8241 9.33559C22.4978 8.67994 24.0178 8.08444 24.7533 6.67635C25.5713 5.11002 24.8222 2.72515 24.8222 2.72515C24.8222 2.72515 27.6119 4.97466 28.8536 8.20734C29.5854 7.60197 30.157 6.92464 30.4088 6.03042C30.8878 4.32949 29.6649 2.14925 29.6649 2.14925C29.6649 2.14925 37.6403 5.96478 36.7341 13.2144C36.1295 18.0508 33.7395 19.8263 33.0078 20.2629C34.2202 20.2887 36.0427 20.6536 37.9701 22.2089C37.9701 22.2089 35.9374 23.2253 34.4751 24.1861L36.672 29.161L40.5262 37.8891C41.8565 40.902 42.4814 44.0227 42.4851 47.0819C42.4857 47.5948 42.0622 48 41.5492 48H4.2161C3.91459 48 3.63007 47.8578 3.45219 47.6143C1.7019 45.2188 0.433039 42.9984 0 41.194C5.15627 41.8312 10.4814 40.7034 13.9799 37.2668C10.5098 38.2601 6.82468 37.1843 6.82468 37.1843C6.82468 37.1843 9.20999 36.4366 10.0281 34.8702C10.7635 33.4621 10.3837 31.8744 9.96552 30.1262C9.45338 27.9851 8.88368 25.6035 10.2347 23.0166C12.6889 18.3177 15.8234 19.9547 15.8234 19.9547C15.8234 19.9547 12.6889 18.3177 15.1432 13.6187C16.4942 11.0318 18.7743 10.1386 20.8241 9.33559ZM28.2985 25.0746C29.2877 25.0746 30.0895 24.2727 30.0895 23.2836C30.0895 22.2944 29.2877 21.4925 28.2985 21.4925C27.3093 21.4925 26.5075 22.2944 26.5075 23.2836C26.5075 24.2727 27.3093 25.0746 28.2985 25.0746ZM46.5667 29.7314C47.5896 27.6745 46.7514 25.1779 44.6946 24.1549C42.9397 23.2822 37.9326 24.1734 36.5001 24.454C36.3001 24.4932 36.1945 24.7054 36.284 24.8886C36.9247 26.2002 39.2354 30.7307 40.9902 31.6035C43.0471 32.6264 45.5437 31.7882 46.5667 29.7314Z"
                fill="#30171B" />
        </g>
    </g>
    <rect x="0.5" y="0.5" width="47" height="47" stroke="white" />
    <defs>
        <clipPath id="clip0_85_1834">
            <rect width="48" height="48" fill="white" />
        </clipPath>
        <clipPath id="clip1_85_1834">
            <rect width="48" height="48" fill="white" />
        </clipPath>
    </defs>
</svg>